<mxfile host="Electron" modified="2024-04-28T21:10:10.879Z" agent="Mozilla/5.0 (Windows NT 10.0; Win64; x64) AppleWebKit/537.36 (KHTML, like Gecko) draw.io/24.2.5 Chrome/120.0.6099.109 Electron/28.1.0 Safari/537.36" etag="zcUxA8gQY5yXuRcXHHGd" version="24.2.5" type="device">
  <diagram name="Page-1" id="cdm7jhc_s_-aFTzOU0VH">
    <mxGraphModel dx="1050" dy="629" grid="1" gridSize="10" guides="1" tooltips="1" connect="1" arrows="1" fold="1" page="1" pageScale="1" pageWidth="850" pageHeight="1100" math="0" shadow="0">
      <root>
        <mxCell id="0" />
        <mxCell id="1" parent="0" />
        <mxCell id="c2Aj3jtkSRrxa3JjSpxw-1" value="" style="ellipse;whiteSpace=wrap;html=1;aspect=fixed;" parent="1" vertex="1">
          <mxGeometry x="120" y="80" width="160" height="160" as="geometry" />
        </mxCell>
        <mxCell id="c2Aj3jtkSRrxa3JjSpxw-2" value="" style="ellipse;whiteSpace=wrap;html=1;aspect=fixed;" parent="1" vertex="1">
          <mxGeometry x="470" y="50" width="170" height="170" as="geometry" />
        </mxCell>
        <mxCell id="c2Aj3jtkSRrxa3JjSpxw-3" value="Only Press W8 Button To move to another state and it will be the previous one else&amp;nbsp;&lt;div&gt;update previous state and current still be w8&lt;/div&gt;" style="ellipse;whiteSpace=wrap;html=1;aspect=fixed;" parent="1" vertex="1">
          <mxGeometry x="490" y="350" width="190" height="190" as="geometry" />
        </mxCell>
        <mxCell id="c2Aj3jtkSRrxa3JjSpxw-4" value="Right" style="text;html=1;align=center;verticalAlign=middle;resizable=0;points=[];autosize=1;strokeColor=none;fillColor=none;fontStyle=1;fontSize=20;" parent="1" vertex="1">
          <mxGeometry x="160" y="135" width="70" height="40" as="geometry" />
        </mxCell>
        <mxCell id="c2Aj3jtkSRrxa3JjSpxw-5" value="left" style="text;html=1;align=center;verticalAlign=middle;resizable=0;points=[];autosize=1;strokeColor=none;fillColor=none;fontStyle=1;fontSize=21;" parent="1" vertex="1">
          <mxGeometry x="530" y="115" width="50" height="40" as="geometry" />
        </mxCell>
        <mxCell id="c2Aj3jtkSRrxa3JjSpxw-6" value="waiting" style="text;html=1;align=center;verticalAlign=top;resizable=0;points=[];autosize=1;strokeColor=none;fillColor=none;fontStyle=1;fontColor=#000000;fontSize=19;" parent="1" vertex="1">
          <mxGeometry x="540" y="490" width="80" height="40" as="geometry" />
        </mxCell>
        <mxCell id="c2Aj3jtkSRrxa3JjSpxw-7" value="" style="ellipse;whiteSpace=wrap;html=1;aspect=fixed;" parent="1" vertex="1">
          <mxGeometry x="120" y="360" width="170" height="170" as="geometry" />
        </mxCell>
        <mxCell id="c2Aj3jtkSRrxa3JjSpxw-8" value="Normal" style="text;html=1;align=center;verticalAlign=middle;resizable=0;points=[];autosize=1;strokeColor=none;fillColor=none;fontStyle=1;fontSize=21;" parent="1" vertex="1">
          <mxGeometry x="155" y="425" width="90" height="40" as="geometry" />
        </mxCell>
        <mxCell id="c2Aj3jtkSRrxa3JjSpxw-9" value="" style="endArrow=classic;html=1;rounded=0;entryX=0.067;entryY=0.242;entryDx=0;entryDy=0;entryPerimeter=0;" parent="1" target="c2Aj3jtkSRrxa3JjSpxw-3" edge="1">
          <mxGeometry width="50" height="50" relative="1" as="geometry">
            <mxPoint x="280" y="159.5" as="sourcePoint" />
            <mxPoint x="370" y="159.5" as="targetPoint" />
          </mxGeometry>
        </mxCell>
        <mxCell id="c2Aj3jtkSRrxa3JjSpxw-10" style="edgeStyle=orthogonalEdgeStyle;rounded=0;orthogonalLoop=1;jettySize=auto;html=1;entryX=0.409;entryY=0.021;entryDx=0;entryDy=0;entryPerimeter=0;exitX=0.5;exitY=1;exitDx=0;exitDy=0;" parent="1" source="c2Aj3jtkSRrxa3JjSpxw-2" edge="1">
          <mxGeometry relative="1" as="geometry">
            <Array as="points">
              <mxPoint x="568" y="220" />
            </Array>
            <mxPoint x="560" y="235.8528137423857" as="sourcePoint" />
            <mxPoint x="567.71" y="349.99" as="targetPoint" />
          </mxGeometry>
        </mxCell>
        <mxCell id="c2Aj3jtkSRrxa3JjSpxw-11" style="edgeStyle=orthogonalEdgeStyle;rounded=0;orthogonalLoop=1;jettySize=auto;html=1;entryX=0;entryY=0.5;entryDx=0;entryDy=0;" parent="1" source="c2Aj3jtkSRrxa3JjSpxw-7" target="c2Aj3jtkSRrxa3JjSpxw-3" edge="1">
          <mxGeometry relative="1" as="geometry">
            <Array as="points" />
          </mxGeometry>
        </mxCell>
        <mxCell id="c2Aj3jtkSRrxa3JjSpxw-13" value="" style="endArrow=classic;html=1;rounded=0;exitX=0.5;exitY=1;exitDx=0;exitDy=0;entryX=0.5;entryY=0;entryDx=0;entryDy=0;" parent="1" source="c2Aj3jtkSRrxa3JjSpxw-1" target="c2Aj3jtkSRrxa3JjSpxw-7" edge="1">
          <mxGeometry width="50" height="50" relative="1" as="geometry">
            <mxPoint x="400" y="350" as="sourcePoint" />
            <mxPoint x="450" y="300" as="targetPoint" />
          </mxGeometry>
        </mxCell>
        <mxCell id="c2Aj3jtkSRrxa3JjSpxw-14" value="W8_signal" style="text;html=1;align=center;verticalAlign=middle;whiteSpace=wrap;rounded=0;" parent="1" vertex="1">
          <mxGeometry x="280" y="190" width="60" height="30" as="geometry" />
        </mxCell>
        <mxCell id="c2Aj3jtkSRrxa3JjSpxw-15" value="W8_signal" style="text;html=1;align=center;verticalAlign=middle;whiteSpace=wrap;rounded=0;" parent="1" vertex="1">
          <mxGeometry x="580" y="270" width="60" height="30" as="geometry" />
        </mxCell>
        <mxCell id="c2Aj3jtkSRrxa3JjSpxw-16" value="W8_signal" style="text;html=1;align=center;verticalAlign=middle;whiteSpace=wrap;rounded=0;" parent="1" vertex="1">
          <mxGeometry x="360" y="420" width="60" height="30" as="geometry" />
        </mxCell>
        <mxCell id="c2Aj3jtkSRrxa3JjSpxw-17" value="Left_sig" style="text;html=1;align=center;verticalAlign=middle;whiteSpace=wrap;rounded=0;" parent="1" vertex="1">
          <mxGeometry x="200" y="290" width="60" height="30" as="geometry" />
        </mxCell>
        <mxCell id="c2Aj3jtkSRrxa3JjSpxw-18" value="" style="endArrow=classic;html=1;rounded=0;exitX=0;exitY=0.5;exitDx=0;exitDy=0;" parent="1" source="c2Aj3jtkSRrxa3JjSpxw-2" target="c2Aj3jtkSRrxa3JjSpxw-7" edge="1">
          <mxGeometry width="50" height="50" relative="1" as="geometry">
            <mxPoint x="400" y="350" as="sourcePoint" />
            <mxPoint x="450" y="300" as="targetPoint" />
          </mxGeometry>
        </mxCell>
        <mxCell id="c2Aj3jtkSRrxa3JjSpxw-20" value="Right_signal" style="text;html=1;align=center;verticalAlign=middle;whiteSpace=wrap;rounded=0;rotation=0;" parent="1" vertex="1">
          <mxGeometry x="280" y="250" width="80" height="30" as="geometry" />
        </mxCell>
        <mxCell id="176dJnAC3DLoi2duwCF6-1" value="" style="endArrow=classic;html=1;rounded=0;exitX=1.005;exitY=0.381;exitDx=0;exitDy=0;exitPerimeter=0;" edge="1" parent="1" source="c2Aj3jtkSRrxa3JjSpxw-7" target="c2Aj3jtkSRrxa3JjSpxw-2">
          <mxGeometry width="50" height="50" relative="1" as="geometry">
            <mxPoint x="400" y="350" as="sourcePoint" />
            <mxPoint x="450" y="300" as="targetPoint" />
          </mxGeometry>
        </mxCell>
        <mxCell id="176dJnAC3DLoi2duwCF6-2" value="left_signal" style="text;html=1;align=center;verticalAlign=middle;whiteSpace=wrap;rounded=0;" vertex="1" parent="1">
          <mxGeometry x="380" y="330" width="60" height="30" as="geometry" />
        </mxCell>
        <mxCell id="176dJnAC3DLoi2duwCF6-3" value="" style="endArrow=classic;html=1;rounded=0;entryX=0.313;entryY=1;entryDx=0;entryDy=0;entryPerimeter=0;exitX=0.327;exitY=0.033;exitDx=0;exitDy=0;exitPerimeter=0;" edge="1" parent="1" source="c2Aj3jtkSRrxa3JjSpxw-7" target="c2Aj3jtkSRrxa3JjSpxw-1">
          <mxGeometry width="50" height="50" relative="1" as="geometry">
            <mxPoint x="160" y="350" as="sourcePoint" />
            <mxPoint x="450" y="300" as="targetPoint" />
          </mxGeometry>
        </mxCell>
        <mxCell id="176dJnAC3DLoi2duwCF6-5" value="right_sig" style="text;html=1;align=center;verticalAlign=middle;whiteSpace=wrap;rounded=0;" vertex="1" parent="1">
          <mxGeometry x="100" y="290" width="60" height="30" as="geometry" />
        </mxCell>
        <mxCell id="176dJnAC3DLoi2duwCF6-13" value="" style="endArrow=classic;html=1;rounded=0;entryX=0.395;entryY=1.019;entryDx=0;entryDy=0;entryPerimeter=0;exitX=0.244;exitY=0.061;exitDx=0;exitDy=0;exitPerimeter=0;" edge="1" parent="1" source="c2Aj3jtkSRrxa3JjSpxw-3" target="c2Aj3jtkSRrxa3JjSpxw-2">
          <mxGeometry width="50" height="50" relative="1" as="geometry">
            <mxPoint x="400" y="340" as="sourcePoint" />
            <mxPoint x="450" y="290" as="targetPoint" />
          </mxGeometry>
        </mxCell>
        <mxCell id="176dJnAC3DLoi2duwCF6-14" value="flag=left" style="text;html=1;align=center;verticalAlign=middle;whiteSpace=wrap;rounded=0;" vertex="1" parent="1">
          <mxGeometry x="475" y="260" width="60" height="30" as="geometry" />
        </mxCell>
        <mxCell id="176dJnAC3DLoi2duwCF6-15" value="" style="endArrow=classic;html=1;rounded=0;exitX=0.008;exitY=0.642;exitDx=0;exitDy=0;exitPerimeter=0;entryX=0.976;entryY=0.649;entryDx=0;entryDy=0;entryPerimeter=0;" edge="1" parent="1" source="c2Aj3jtkSRrxa3JjSpxw-3" target="c2Aj3jtkSRrxa3JjSpxw-7">
          <mxGeometry width="50" height="50" relative="1" as="geometry">
            <mxPoint x="400" y="340" as="sourcePoint" />
            <mxPoint x="450" y="290" as="targetPoint" />
          </mxGeometry>
        </mxCell>
        <mxCell id="176dJnAC3DLoi2duwCF6-16" value="flag=Normal" style="text;html=1;align=center;verticalAlign=middle;whiteSpace=wrap;rounded=0;" vertex="1" parent="1">
          <mxGeometry x="360" y="480" width="60" height="30" as="geometry" />
        </mxCell>
        <mxCell id="176dJnAC3DLoi2duwCF6-17" value="" style="endArrow=classic;html=1;rounded=0;entryX=0.923;entryY=0.19;entryDx=0;entryDy=0;entryPerimeter=0;" edge="1" parent="1" source="c2Aj3jtkSRrxa3JjSpxw-3" target="c2Aj3jtkSRrxa3JjSpxw-1">
          <mxGeometry width="50" height="50" relative="1" as="geometry">
            <mxPoint x="400" y="340" as="sourcePoint" />
            <mxPoint x="450" y="290" as="targetPoint" />
          </mxGeometry>
        </mxCell>
        <mxCell id="176dJnAC3DLoi2duwCF6-18" value="flag=right" style="text;html=1;align=center;verticalAlign=middle;whiteSpace=wrap;rounded=0;" vertex="1" parent="1">
          <mxGeometry x="310" y="140" width="60" height="30" as="geometry" />
        </mxCell>
        <mxCell id="176dJnAC3DLoi2duwCF6-21" value="" style="endArrow=classic;startArrow=classic;html=1;rounded=0;exitX=0.414;exitY=0.007;exitDx=0;exitDy=0;exitPerimeter=0;entryX=0;entryY=0;entryDx=0;entryDy=0;" edge="1" parent="1" source="c2Aj3jtkSRrxa3JjSpxw-2" target="c2Aj3jtkSRrxa3JjSpxw-2">
          <mxGeometry width="50" height="50" relative="1" as="geometry">
            <mxPoint x="650" y="90" as="sourcePoint" />
            <mxPoint x="700" y="40" as="targetPoint" />
          </mxGeometry>
        </mxCell>
        <mxCell id="176dJnAC3DLoi2duwCF6-22" value="left_sig" style="text;html=1;align=center;verticalAlign=middle;whiteSpace=wrap;rounded=0;" vertex="1" parent="1">
          <mxGeometry x="480" y="20" width="60" height="30" as="geometry" />
        </mxCell>
        <mxCell id="176dJnAC3DLoi2duwCF6-23" value="" style="endArrow=classic;startArrow=classic;html=1;rounded=0;exitX=0.048;exitY=0.3;exitDx=0;exitDy=0;exitPerimeter=0;entryX=0.038;entryY=0.73;entryDx=0;entryDy=0;entryPerimeter=0;" edge="1" parent="1" source="c2Aj3jtkSRrxa3JjSpxw-1" target="c2Aj3jtkSRrxa3JjSpxw-1">
          <mxGeometry width="50" height="50" relative="1" as="geometry">
            <mxPoint x="400" y="340" as="sourcePoint" />
            <mxPoint x="450" y="290" as="targetPoint" />
          </mxGeometry>
        </mxCell>
        <mxCell id="176dJnAC3DLoi2duwCF6-25" value="right_sig" style="text;html=1;align=center;verticalAlign=middle;whiteSpace=wrap;rounded=0;" vertex="1" parent="1">
          <mxGeometry x="50" y="140" width="60" height="30" as="geometry" />
        </mxCell>
      </root>
    </mxGraphModel>
  </diagram>
</mxfile>
